<?xml version="1.0" encoding="UTF-8"?>
<svg version="1.1" xmlns="http://www.w3.org/2000/svg" width="22" height="22">
<path d="M0 0 C1.2065625 0.0309375 1.2065625 0.0309375 2.4375 0.0625 C2.4375 1.0525 2.4375 2.0425 2.4375 3.0625 C3.7575 3.3925 5.0775 3.7225 6.4375 4.0625 C6.1075 6.3725 5.7775 8.6825 5.4375 11.0625 C4.4475 11.3925 3.4575 11.7225 2.4375 12.0625 C2.47875 13.17625 2.52 14.29 2.5625 15.4375 C2.4375 19.0625 2.4375 19.0625 0.4375 21.0625 C-2.3828125 21.4765625 -2.3828125 21.4765625 -5.6875 21.6875 C-6.78320312 21.76226563 -7.87890625 21.83703125 -9.0078125 21.9140625 C-9.85085937 21.96304687 -10.69390625 22.01203125 -11.5625 22.0625 C-11.5625 21.0725 -11.5625 20.0825 -11.5625 19.0625 C-12.8825 18.7325 -14.2025 18.4025 -15.5625 18.0625 C-15.76336443 14.34650809 -15.7144437 13.29041555 -13.5625 10.0625 C-12.9025 10.0625 -12.2425 10.0625 -11.5625 10.0625 C-11.60375 8.94875 -11.645 7.835 -11.6875 6.6875 C-11.5625 3.0625 -11.5625 3.0625 -9.5625 1.0625 C-7.56291636 1.02169217 -5.56204746 1.01995644 -3.5625 1.0625 C-2.5625 0.0625 -2.5625 0.0625 0 0 Z " fill="#0B718C" transform="translate(15.5625,-0.0625)"/>
<path d="M0 0 C0.125 5.75 0.125 5.75 -1 8 C2.31460705 6.29107501 2.31460705 6.29107501 2.6875 2.875 C2.8421875 1.451875 2.8421875 1.451875 3 0 C3.66 0 4.32 0 5 0 C5.33 2.31 5.66 4.62 6 7 C2.25 10 2.25 10 0 10 C-0.33 11.98 -0.66 13.96 -1 16 C-2.32 16 -3.64 16 -5 16 C-5.33 14.68 -5.66 13.36 -6 12 C-6.99 12.495 -6.99 12.495 -8 13 C-6.125 9.125 -6.125 9.125 -5 8 C-4.7834375 6.2675 -4.7834375 6.2675 -4.5625 4.5 C-4.376875 3.345 -4.19125 2.19 -4 1 C-2 0 -2 0 0 0 Z " fill="#30B4AC" transform="translate(11,3)"/>
<path d="M0 0 C1.2065625 0.0309375 1.2065625 0.0309375 2.4375 0.0625 C2.4375 3.0325 2.4375 6.0025 2.4375 9.0625 C0.4375 5.0625 0.4375 5.0625 0.4375 3.0625 C-0.2225 3.0625 -0.8825 3.0625 -1.5625 3.0625 C-1.43875 4.4546875 -1.43875 4.4546875 -1.3125 5.875 C-1.5625 9.0625 -1.5625 9.0625 -3.5625 10.9375 C-4.5525 11.494375 -4.5525 11.494375 -5.5625 12.0625 C-6.2225 11.7325 -6.8825 11.4025 -7.5625 11.0625 C-6.9025 10.4025 -6.2425 9.7425 -5.5625 9.0625 C-5.16485737 7.07428687 -4.82474651 5.07305661 -4.5625 3.0625 C-5.8825 3.3925 -7.2025 3.7225 -8.5625 4.0625 C-8.5625 6.3725 -8.5625 8.6825 -8.5625 11.0625 C-8.8925 11.0625 -9.2225 11.0625 -9.5625 11.0625 C-9.5625 8.7525 -9.5625 6.4425 -9.5625 4.0625 C-10.2225 3.7325 -10.8825 3.4025 -11.5625 3.0625 C-9.5625 1.0625 -9.5625 1.0625 -6.5 1 C-5.0459375 1.0309375 -5.0459375 1.0309375 -3.5625 1.0625 C-2.5625 0.0625 -2.5625 0.0625 0 0 Z " fill="#12748C" transform="translate(15.5625,-0.0625)"/>
<path d="M0 0 C1.32 0.33 2.64 0.66 4 1 C3.67 3.31 3.34 5.62 3 8 C2.01 8.33 1.02 8.66 0 9 C-0.0825 9.78375 -0.165 10.5675 -0.25 11.375 C-1 14 -1 14 -3.0625 15.3125 C-4.0215625 15.6528125 -4.0215625 15.6528125 -5 16 C-5.25 13.8125 -5.25 13.8125 -5 11 C-3.67189785 9.32916181 -2.33827304 7.66270287 -1 6 C-0.20309162 2.81237891 -0.20309162 2.81237891 0 0 Z " fill="#088A98" transform="translate(18,3)"/>
<path d="M0 0 C0.25 2.75 0.25 2.75 0 6 C-2 8.375 -2 8.375 -4 10 C-4.66 9.67 -5.32 9.34 -6 9 C-5.67 8.67 -5.34 8.34 -5 8 C-4.855625 6.845 -4.71125 5.69 -4.5625 4.5 C-4.376875 3.345 -4.19125 2.19 -4 1 C-2 0 -2 0 0 0 Z " fill="#78C6C3" transform="translate(11,3)"/>
<path d="M0 0 C0.33 0.66 0.66 1.32 1 2 C1.99 2 2.98 2 4 2 C3.67 3.65 3.34 5.3 3 7 C1.68 7 0.36 7 -1 7 C-1.33 5.68 -1.66 4.36 -2 3 C-2.99 3.495 -2.99 3.495 -4 4 C-3.67 3.01 -3.34 2.02 -3 1 C-2.01 0.67 -1.02 0.34 0 0 Z " fill="#179B9F" transform="translate(7,12)"/>
<path d="M0 0 C1.98 0.495 1.98 0.495 4 1 C3.67 3.31 3.34 5.62 3 8 C1.68 7.34 0.36 6.68 -1 6 C-0.67 4.02 -0.34 2.04 0 0 Z " fill="#096E8B" transform="translate(18,3)"/>
<path d="M0 0 C1.65 0 3.3 0 5 0 C5 2.97 5 5.94 5 9 C3 5 3 5 3 3 C1.68 3 0.36 3 -1 3 C-0.67 2.01 -0.34 1.02 0 0 Z " fill="#11889B" transform="translate(13,0)"/>
<path d="M0 0 C2.625 0.375 2.625 0.375 5 1 C3.02 1.99 3.02 1.99 1 3 C1 5.31 1 7.62 1 10 C0.67 10 0.34 10 0 10 C0 7.69 0 5.38 0 3 C-0.66 2.67 -1.32 2.34 -2 2 C-1.34 1.34 -0.68 0.68 0 0 Z " fill="#2987A0" transform="translate(6,1)"/>
</svg>
